<?xml version="1.0" encoding="UTF-8" standalone="no"?>
<svg
   viewBox="0 0 16 16"
   version="1.1"
   id="svg4"
   sodipodi:docname="Icon.svg"
   inkscape:version="1.3 (0e150ed6c4, 2023-07-21)"
   width="16"
   height="16"
   xmlns:inkscape="http://www.inkscape.org/namespaces/inkscape"
   xmlns:sodipodi="http://sodipodi.sourceforge.net/DTD/sodipodi-0.dtd"
   xmlns="http://www.w3.org/2000/svg"
   xmlns:svg="http://www.w3.org/2000/svg">
  <defs
     id="defs8" />
  <sodipodi:namedview
     id="namedview6"
     pagecolor="#505050"
     bordercolor="#666666"
     borderopacity="1.0"
     inkscape:showpageshadow="2"
     inkscape:pageopacity="0"
     inkscape:pagecheckerboard="0"
     inkscape:deskcolor="#505050"
     showgrid="false"
     inkscape:zoom="37.830214"
     inkscape:cx="7.9169523"
     inkscape:cy="6.6349083"
     inkscape:window-width="1920"
     inkscape:window-height="1048"
     inkscape:window-x="0"
     inkscape:window-y="0"
     inkscape:window-maximized="1"
     inkscape:current-layer="svg4" />
  <!--! Font Awesome Pro 6.2.0 by @fontawesome - https://fontawesome.com License - https://fontawesome.com/license (Commercial License) Copyright 2022 Fonticons, Inc. -->
  <path
     id="path1"
     style="fill:#89e692;fill-opacity:1;stroke-width:0.0279018"
     d="M 3.5,5.2857141 C 3.5,4.3007813 4.3007813,3.5 5.2857141,3.5 H 14.214286 C 15.199218,3.5 16,4.3007813 16,5.2857141 V 14.214286 C 16,15.199218 15.199218,16 14.214286,16 H 5.2857141 C 4.3007813,16 3.5,15.199218 3.5,14.214286 Z M 1.4062499,0 C 0.62719063,0 0,0.62719063 0,1.4062499 V 3.5476075 H 1.5 V 2.4871216 C 1.5,1.9402634 1.9195814,1.5 2.4407349,1.5 H 3.7489013 V 0 Z M 5.2489013,0 V 1.5 H 7.2965088 V 0 Z M 8.7965088,0 V 1.5 H 10.844116 V 0 Z m 3.5476082,0 v 1.5 h 1.215148 C 14.080418,1.5 14.5,1.9402634 14.5,2.4871216 v 0.096985 H 16 V 1.4062499 C 16,0.62719063 15.37281,0 14.59375,0 Z M 0,5.0476075 V 7.095215 H 1.5 V 5.0476075 Z M 0,8.595215 v 2.047546 H 1.5 V 8.595215 Z m 0,3.547546 V 14.59375 C 0,15.37281 0.62719063,16 1.4062499,16 H 2.7108154 V 14.5 H 2.4407349 C 1.9195814,14.5 1.5,14.059736 1.5,13.512879 v -1.370118 z" />
</svg>
