<?xml version="1.0" encoding="UTF-8" standalone="no"?>
<svg
   viewBox="0 0 16 16"
   version="1.1"
   id="svg4"
   sodipodi:docname="Icon_Node.svg"
   inkscape:version="1.3 (0e150ed6c4, 2023-07-21)"
   width="16"
   height="16"
   xmlns:inkscape="http://www.inkscape.org/namespaces/inkscape"
   xmlns:sodipodi="http://sodipodi.sourceforge.net/DTD/sodipodi-0.dtd"
   xmlns="http://www.w3.org/2000/svg"
   xmlns:svg="http://www.w3.org/2000/svg">
  <defs
     id="defs8" />
  <sodipodi:namedview
     id="namedview6"
     pagecolor="#505050"
     bordercolor="#666666"
     borderopacity="1.0"
     inkscape:showpageshadow="2"
     inkscape:pageopacity="0"
     inkscape:pagecheckerboard="0"
     inkscape:deskcolor="#505050"
     showgrid="false"
     inkscape:zoom="18.915107"
     inkscape:cx="7.9037354"
     inkscape:cy="7.983037"
     inkscape:window-width="1920"
     inkscape:window-height="1048"
     inkscape:window-x="0"
     inkscape:window-y="0"
     inkscape:window-maximized="1"
     inkscape:current-layer="svg4" />
  <!--! Font Awesome Pro 6.2.0 by @fontawesome - https://fontawesome.com License - https://fontawesome.com/license (Commercial License) Copyright 2022 Fonticons, Inc. -->
  <path
     id="path2"
     style="fill:#89e692;fill-opacity:1;stroke-width:0.0267867"
     d="m 0.8,1.4214498 v 9.9324812 c 0,0.326797 0.265185,0.589305 0.5893048,0.589305 0.1687575,0 0.3321525,-0.0723 0.44466,-0.200895 L 4.0465395,9.2110011 5.6028418,12.326283 c 0.211612,0.423233 0.725917,0.594668 1.14915,0.383055 0.423225,-0.21162 0.59466,-0.725917 0.383047,-1.14915 L 5.6162368,8.5145516 h 3.163499 c 0.326797,0 0.591982,-0.2651929 0.591982,-0.5919903 0,-0.16875 -0.0723,-0.329475 -0.198217,-0.441975 L 1.8339648,0.95804 C 1.7187798,0.85625 1.5741348,0.8 1.4214498,0.8 1.07858,0.8 0.8,1.07858 0.8,1.4214498 Z M 1.40625,0 C 0.62719374,0 0,0.62719374 0,1.40625 V 3.546875 H 0.40039062 V 1.0214844 c 0,-0.30000968 0.21314512,-0.5514336 0.49609376,-0.60937502 h 0.001953 C 0.98924869,0.36012718 1.0930777,0.328125 1.2050781,0.328125 c 0.00936,0 0.018047,0.001533 0.027344,0.001953 0.05987,-0.0188047 0.1234409,-0.0292969 0.1894531,-0.0292969 0.1526842,0 0.2969248,0.0564135 0.4121094,0.15820313 L 3.0058594,1.5 H 3.7480469 V 0 Z M 5.2480469,0 V 1.5 H 7.296875 V 0 Z M 8.796875,0 V 1.5 H 10.84375 V 0 Z m 3.546875,0 v 1.5 h 1.214844 C 14.079743,1.5 14.5,1.9394724 14.5,2.4863281 V 3.546875 H 16 V 1.40625 C 16,0.62719374 15.372806,0 14.59375,0 Z M 0,5.046875 V 7.0957031 H 0.40039062 V 5.046875 Z m 14.5,0 V 7.0957031 H 16 V 5.046875 Z M 0,8.5957031 V 10.642578 H 0.40039062 V 8.5957031 Z m 14.5,0 V 10.642578 H 16 V 8.5957031 Z M 0,12.142578 V 14.59375 C 0,15.372806 0.62719374,16 1.40625,16 H 3.7480469 V 14.5 H 2.4414062 C 1.9202552,14.5 1.5,14.060526 1.5,13.513672 V 12.53125 c -0.036525,0.007 -0.07377,0.01172 -0.1113281,0.01172 -0.052585,0 -0.1020028,-0.0084 -0.1503907,-0.02149 -0.048433,0.01258 -0.09781,0.02149 -0.1484374,0.02149 -0.25809141,0 -0.47742226,-0.167575 -0.55664068,-0.400391 z m 14.5,0 v 1.371094 C 14.5,14.060526 14.079743,14.5 13.558594,14.5 H 12.34375 V 16 h 2.25 C 15.372806,16 16,15.372806 16,14.59375 V 12.142578 Z M 5.2480469,14.5 V 16 H 7.296875 v -1.5 z m 3.5488281,0 V 16 h 2.046875 v -1.5 z" />
</svg>
