<?xml version="1.0" encoding="UTF-8" standalone="no"?>
<svg
   viewBox="0 0 16 16"
   version="1.1"
   id="svg4"
   sodipodi:docname="Icon.svg"
   inkscape:version="1.3 (0e150ed6c4, 2023-07-21)"
   width="16"
   height="16"
   xmlns:inkscape="http://www.inkscape.org/namespaces/inkscape"
   xmlns:sodipodi="http://sodipodi.sourceforge.net/DTD/sodipodi-0.dtd"
   xmlns="http://www.w3.org/2000/svg"
   xmlns:svg="http://www.w3.org/2000/svg">
  <defs
     id="defs8" />
  <sodipodi:namedview
     id="namedview6"
     pagecolor="#505050"
     bordercolor="#666666"
     borderopacity="1.0"
     inkscape:showpageshadow="2"
     inkscape:pageopacity="0"
     inkscape:pagecheckerboard="0"
     inkscape:deskcolor="#505050"
     showgrid="false"
     inkscape:zoom="37.830214"
     inkscape:cx="9.4236844"
     inkscape:cy="8.6967522"
     inkscape:window-width="1920"
     inkscape:window-height="1048"
     inkscape:window-x="0"
     inkscape:window-y="0"
     inkscape:window-maximized="1"
     inkscape:current-layer="svg4" />
  <!--! Font Awesome Pro 6.2.0 by @fontawesome - https://fontawesome.com License - https://fontawesome.com/license (Commercial License) Copyright 2022 Fonticons, Inc. -->
  <path
     id="rect527"
     style="fill:#89e692;fill-opacity:1;stroke-width:0.03125"
     d="M 1.40625,0 C 0.62718984,0 0,0.62718984 0,1.40625 V 3.5476075 H 1.5 V 2.4871216 C 1.5,1.9402629 1.919581,1.5 2.440735,1.5 H 3.7489013 V 0 Z M 5.2489012,0 V 1.5 H 7.2965087 V 0 Z M 8.7965087,0 V 1.5 H 10.844116 V 0 Z m 3.5476073,0 v 1.5 h 1.215149 C 14.080419,1.5 14.5,1.9402629 14.5,2.4871216 V 3.5476075 H 16 V 1.40625 C 16,0.62718984 15.372811,0 14.59375,0 Z M 0,5.0476075 V 7.095215 H 1.5 V 5.0476075 Z m 14.5,0 V 7.095215 H 16 V 5.0476075 Z M 0,8.595215 v 2.047546 H 1.5 V 8.595215 Z m 14.5,0 v 2.047546 H 16 V 8.595215 Z M 0,12.142761 V 14.59375 C 0,15.372811 0.62718984,16 1.40625,16 H 3.7489012 V 14.5 H 2.440735 C 1.919581,14.5 1.5,14.059737 1.5,13.512878 v -1.370117 z m 14.5,0 v 1.370117 C 14.5,14.059737 14.080419,14.5 13.559265,14.5 H 12.344116 V 16 H 14.59375 C 15.372811,16 16,15.372811 16,14.59375 V 12.142761 Z M 5.2489012,14.5 V 16 h 2.0476075 v -1.5 z m 3.5476076,0 V 16 h 2.0476072 v -1.5 z" />
</svg>
